<svg width="125" height="37" viewBox="0 0 125 37" fill="none" xmlns="http://www.w3.org/2000/svg">
<path d="M16.6453 13.068C16.0308 13.1443 15.3424 13.1835 14.5801 13.1855C13.8377 13.162 12.9061 13.1041 11.7855 13.0118L11.1939 19.9932L16.1781 19.3744L15.945 21.9721L10.9608 22.5909L9.78685 35.7888L4.87094 36.3991L6.95987 12.9513C5.39797 13.2146 4.33479 13.9599 3.77034 15.1871C3.22864 16.4114 3.1045 18.2088 3.39792 20.5792C3.45152 21.0122 3.52083 21.3854 3.60585 21.6989C3.71362 22.0095 3.85413 22.3045 4.02736 22.5838C4.08416 22.6693 4.11538 22.7349 4.12103 22.7805C4.14661 22.8004 4.16081 22.8218 4.16363 22.8446C2.88913 23.0028 1.92357 22.8566 1.26695 22.4058C0.630266 21.9294 0.24139 21.1215 0.100323 19.9819C-0.235417 17.2696 0.510737 14.9901 2.33878 13.1432C4.18677 11.2706 6.95423 10.1055 10.6412 9.64781C10.846 9.62238 11.0978 9.6027 11.3964 9.58876C11.6951 9.57482 12.1901 9.55966 12.8813 9.54327C13.803 9.52142 14.5056 9.50362 14.9891 9.48987C15.4927 9.4505 15.9493 9.40539 16.3589 9.35453C16.9734 9.27824 17.5268 9.17483 18.019 9.0443C18.5112 8.91376 18.9651 8.75328 19.3806 8.56284C19.3635 8.61125 19.3048 8.97724 19.2045 9.66081C19.1043 10.3444 18.953 10.8954 18.7506 11.314C18.5482 11.7325 18.2691 12.0912 17.9132 12.3899C17.5773 12.663 17.1546 12.8891 16.6453 13.068Z" fill="#C6E3E8"/>
<path d="M23.289 12.1391C23.3821 12.8912 23.188 13.5633 22.7067 14.1553C22.2481 14.7445 21.6433 15.0857 20.8923 15.179C20.1412 15.2722 19.4715 15.0892 18.8832 14.63C18.2949 14.1708 17.9541 13.5651 17.861 12.8129C17.7679 12.0608 17.9507 11.3901 18.4092 10.8009C18.865 10.189 19.4684 9.83633 20.2194 9.7431C20.9704 9.64986 21.6415 9.84425 22.2327 10.3263C22.8438 10.7827 23.1959 11.3869 23.289 12.1391ZM16.7802 30.9633C16.7435 30.667 16.7253 30.3337 16.7257 29.9634C16.7233 29.5703 16.7408 29.1515 16.7782 28.7072L17.7411 17.4447L22.657 16.8344L21.638 28.7634C21.6178 28.9742 21.6077 29.1722 21.6075 29.3573C21.6045 29.5197 21.6143 29.692 21.6368 29.8744C21.6933 30.3302 21.8366 30.648 22.0668 30.8277C22.317 30.9818 22.6924 31.0277 23.1931 30.9656C23.8303 30.8864 24.3996 30.5381 24.9009 29.9204C25.3993 29.28 25.73 28.4984 25.8931 27.5756L27.3269 27.3976C26.8554 29.5621 26.0714 31.2562 24.9751 32.48C23.8787 33.7038 22.5339 34.4146 20.9408 34.6124C19.8029 34.7536 18.8602 34.512 18.1127 33.8873C17.3852 33.2371 16.941 32.2624 16.7802 30.9633Z" fill="#C6E3E8"/>
<path d="M34.2131 29.042C34.1623 28.6318 34.1444 28.1133 34.1592 27.4866C34.1969 26.8571 34.2918 25.8502 34.4439 24.466C34.6017 23.1273 34.6909 22.1674 34.7114 21.5863C34.7319 21.0052 34.7182 20.5209 34.6702 20.1334C34.5997 19.5636 34.4436 19.1433 34.2021 18.8724C33.9606 18.6016 33.635 18.4916 33.2254 18.5424C32.6792 18.6102 32.2024 18.9587 31.795 19.5878C31.4075 20.1914 31.1265 21.0015 30.9519 22.0183L29.989 33.2808L25.0731 33.8911L26.5757 16.3479L31.4917 15.7376L31.3362 17.562C31.8262 16.8532 32.3814 16.2983 33.0019 15.8972C33.6224 15.4962 34.3196 15.2477 35.0934 15.1516C36.2996 15.0019 37.2736 15.2165 38.0155 15.7955C38.7573 16.3746 39.2058 17.2908 39.361 18.5444C39.4259 19.0686 39.4352 19.7039 39.3889 20.4502C39.3626 21.1708 39.259 22.2945 39.0783 23.8212C38.9263 25.0203 38.8344 25.8648 38.8026 26.3548C38.7708 26.8447 38.7747 27.2492 38.8142 27.5683C38.8734 28.0469 39.0324 28.3975 39.291 28.6199C39.5468 28.8196 39.9023 28.8912 40.3575 28.8347C40.9264 28.764 41.3918 28.5096 41.7535 28.0712C42.1152 27.6329 42.4816 26.7659 42.8527 25.4701L44.2865 25.2921C43.8206 27.5022 43.1291 29.1964 42.2119 30.3748C41.3176 31.5504 40.1535 32.2272 38.7197 32.4052C37.4452 32.5634 36.4128 32.3444 35.6227 31.7483C34.8297 31.1293 34.3598 30.2272 34.2131 29.042Z" fill="#C6E3E8"/>
<path d="M47.5663 25.2321C47.6764 26.121 47.8848 26.7778 48.1915 27.2025C48.4955 27.6045 48.9661 27.7659 49.6033 27.6868C50.1723 27.6162 50.6975 27.2849 51.1788 26.6928C51.6573 26.078 51.9482 25.3476 52.0514 24.5017L52.0303 24.3308L52.7339 16.2941C52.6205 15.9379 52.4259 15.6728 52.1502 15.4987C51.8944 15.299 51.573 15.2232 51.1861 15.2713C49.9344 15.4267 48.949 16.6135 48.2299 18.8319C47.5336 21.0474 47.3124 23.1808 47.5663 25.2321ZM52.8465 14.6833L52.8634 14.82L53.5628 6.74916L58.5307 5.43816L56.89 24.387C56.8699 24.5978 56.8598 24.7957 56.8596 24.9809C56.8566 25.1433 56.8663 25.3156 56.8889 25.498C56.9453 25.9538 57.0887 26.2716 57.3189 26.4513C57.569 26.6053 57.9445 26.6513 58.4452 26.5891C59.0369 26.5157 59.5393 26.1872 59.9523 25.6036C60.3654 25.0201 60.6606 24.2313 60.838 23.2373L62.2718 23.0593C61.8173 25.1754 61.0846 26.8169 60.0737 27.9838C59.0854 29.1479 57.7834 29.8302 56.1675 30.0308C55.2344 30.1467 54.4409 29.9906 53.7871 29.5626C53.1533 29.1091 52.7102 28.4235 52.458 27.506C51.905 28.6392 51.2399 29.5202 50.4627 30.1489C49.6855 30.7777 48.7963 31.1542 47.7949 31.2785C46.3838 31.4537 45.2094 31.1135 44.2716 30.258C43.3565 29.3996 42.7904 28.0929 42.5731 26.338C42.4151 25.0616 42.4435 23.7043 42.6583 22.2659C42.8731 20.8276 43.2514 19.4962 43.7931 18.2719C44.4687 16.8226 45.3204 15.6755 46.3481 14.8305C47.373 13.9627 48.5454 13.4469 49.8655 13.283C50.753 13.1728 51.4556 13.2476 51.973 13.5073C52.4876 13.7443 52.7788 14.1363 52.8465 14.6833Z" fill="#C6E3E8"/>
<path d="M65.919 11.8107C65.7779 10.6711 66.0124 9.4849 66.6224 8.25206C67.2551 7.0164 68.1978 5.85797 69.4505 4.77677C70.5181 3.88054 71.6865 3.14536 72.9557 2.57123C74.2449 1.97148 75.5267 1.5925 76.8012 1.43427L78.1668 1.26475L76.0507 26.1738C75.8059 29.2359 75.0483 31.5168 73.7782 33.0168C72.508 34.5167 70.6212 35.4221 68.1177 35.7329C66.5473 35.9278 65.2533 35.6488 64.2358 34.8957C63.241 34.1398 62.6519 33.0211 62.4685 31.5396C62.3077 30.2405 62.5606 29.1099 63.2271 28.1477C63.8909 27.1627 64.8373 26.594 66.0663 26.4414C67.2953 26.2888 68.1841 26.3752 68.7327 26.7005C69.2786 27.003 69.5994 27.5417 69.6954 28.3167C69.7179 28.499 69.7206 28.7069 69.7033 28.9405C69.7116 29.1941 69.6971 29.4504 69.6598 29.7096C69.2334 29.4385 68.8638 29.253 68.551 29.153C68.2382 29.053 67.8884 29.027 67.5015 29.075C66.796 29.1626 66.2452 29.474 65.8493 30.0091C65.4761 30.5414 65.3347 31.1722 65.425 31.9016C65.5153 32.6309 65.8034 33.1853 66.2894 33.5646C66.7982 33.9412 67.3826 34.0885 68.0426 34.0065C68.9302 33.8963 69.5621 33.4939 69.9383 32.7992C70.34 32.1245 70.6157 30.991 70.7652 29.3988L73.1033 4.32329C71.6347 5.15359 70.5597 6.27058 69.8785 7.67426C69.2172 9.05232 68.9965 10.6302 69.2166 12.408C69.2702 12.8411 69.3395 13.2143 69.4245 13.5277C69.5323 13.8383 69.6728 14.1333 69.846 14.4127C69.9028 14.4982 69.9341 14.5637 69.9397 14.6093C69.9653 14.6293 69.9795 14.6507 69.9823 14.6734C68.7078 14.8317 67.7423 14.6854 67.0856 14.2347C66.4489 13.7583 66.0601 12.9503 65.919 11.8107Z" fill="#C6E3E8"/>
<path d="M78.7818 21.8775C78.621 20.5783 78.6552 19.174 78.8843 17.6645C79.1361 16.1521 79.5556 14.7809 80.1429 13.5509C80.8185 12.1016 81.7057 10.9617 82.8045 10.131C83.9005 9.27752 85.1768 8.76037 86.6334 8.57954C88.0899 8.39871 89.2388 8.71893 90.0799 9.54019C90.9211 10.3615 91.4545 11.6838 91.6802 13.5071C91.7285 13.5243 91.7769 13.5414 91.8252 13.5585C91.8935 13.5501 91.9731 13.5402 92.0642 13.5289C92.7697 13.4413 93.5878 13.143 94.5185 12.6341C95.4491 12.1251 96.2988 11.5221 97.0676 10.8249L97.4891 11.7099C96.9365 12.4727 96.1564 13.1713 95.1488 13.8055C94.1639 14.4369 93.0469 14.9342 91.7978 15.2976C91.9056 18.4084 91.3256 21.0029 90.0576 23.0811C88.7897 25.1593 87.0747 26.3326 84.9126 26.6011C83.1374 26.8214 81.7268 26.5337 80.6809 25.7379C79.6349 24.9421 79.0019 23.6552 78.7818 21.8775ZM87.1646 10.6311C86.0722 10.7667 85.1735 12.0007 84.4685 14.333C83.7863 16.6625 83.568 18.8187 83.8134 20.8016C83.946 21.8728 84.1501 22.588 84.4257 22.9472C84.724 23.3036 85.2145 23.4394 85.8973 23.3546C86.7394 23.2501 87.4513 22.4674 88.033 21.0067C88.6376 19.5431 88.9522 17.7915 88.9771 15.7519C88.65 15.7231 88.3927 15.6046 88.2051 15.3965C88.0376 15.1627 87.9284 14.8407 87.8776 14.4305C87.824 13.9974 87.8685 13.6101 88.011 13.2684C88.1536 12.9267 88.3857 12.6549 88.7073 12.4529C88.5715 11.7292 88.3829 11.232 88.1414 10.9611C87.9226 10.6874 87.597 10.5774 87.1646 10.6311Z" fill="#C6E3E8"/>
<path d="M100.046 24.7917C98.5214 24.981 97.2914 24.7519 96.3562 24.1043C95.4409 23.4311 94.8973 22.3993 94.7252 21.009C94.6857 20.6899 94.6689 20.368 94.6749 20.0433C94.681 19.7185 94.697 19.381 94.7229 19.0306L96.2555 1.44903L101.223 0.138023L100.537 8.03372C101.041 7.62403 101.489 7.32538 101.882 7.13777C102.294 6.92455 102.74 6.78827 103.218 6.72893C104.56 6.56223 105.623 6.92794 106.404 7.82605C107.205 8.69855 107.727 10.1149 107.97 12.075C108.136 13.4197 108.102 14.824 107.867 16.288C107.633 17.7519 107.216 19.0533 106.617 20.1922C105.928 21.5275 105.031 22.5877 103.926 23.3728C102.819 24.1351 101.526 24.608 100.046 24.7917ZM99.5435 19.8901C99.6084 20.4143 99.8057 20.7948 100.135 21.0316C100.485 21.2428 100.956 21.3116 101.547 21.2381C102.572 21.111 103.382 20.0963 103.978 18.194C104.575 16.2917 104.75 14.3492 104.505 12.3663C104.386 11.409 104.118 10.6439 103.701 10.0709C103.306 9.49504 102.835 9.24103 102.289 9.30884C101.925 9.35405 101.545 9.45906 101.15 9.62388C100.754 9.7887 100.488 9.97216 100.351 10.1743L99.5485 19.0911C99.5427 19.2307 99.5369 19.3702 99.5311 19.5098C99.5252 19.6494 99.5294 19.7762 99.5435 19.8901Z" fill="#C6E3E8"/>
<path d="M120.662 16.2269C120.696 16.5004 120.714 16.7412 120.717 16.9491C120.719 17.1571 120.709 17.355 120.686 17.543C121.108 17.213 121.516 16.873 121.912 16.523C122.308 16.1731 122.648 15.8415 122.933 15.5285L124.366 15.3505C123.762 16.2586 123.072 17.1196 122.294 17.9335C121.537 18.7218 120.663 19.5014 119.672 20.2724C119.14 21.0097 118.418 21.6199 117.507 22.1033C116.594 22.5638 115.613 22.8591 114.566 22.9891C113.042 23.1784 111.773 22.9193 110.761 22.2118C109.769 21.4787 109.196 20.4853 109.041 19.2318C108.953 18.5252 109.045 17.8659 109.316 17.2537C109.584 16.6187 109.964 16.1434 110.456 15.8277C111.058 14.3413 111.592 12.7709 112.057 11.1163C112.542 9.43608 112.991 7.45958 113.403 5.1868L118.371 3.8758C118.65 5.57671 118.923 7.12807 119.189 8.52987C119.455 9.93166 119.759 11.456 120.102 13.1028C120.289 14.0516 120.417 14.7183 120.488 15.103C120.559 15.4876 120.617 15.8623 120.662 16.2269ZM114.065 8.85366C113.884 9.82486 113.642 10.8501 113.336 11.9294C113.051 12.9831 112.638 14.2261 112.099 15.6585C112.364 15.7413 112.577 15.8769 112.739 16.065C112.901 16.2532 112.999 16.484 113.033 16.7576C113.086 17.1906 112.986 17.5964 112.733 17.975C112.479 18.3536 112.147 18.5684 111.738 18.6192C111.51 18.6475 111.313 18.6373 111.145 18.5887C110.974 18.5173 110.846 18.4175 110.761 18.2892C110.865 19.1325 111.101 19.7281 111.468 20.076C111.854 20.3983 112.411 20.5143 113.14 20.4238C114.073 20.308 114.767 19.9441 115.223 19.3321C115.679 18.7201 115.843 17.9013 115.716 16.8757C115.677 16.5566 115.626 16.2389 115.564 15.9226C115.498 15.5836 115.384 15.0308 115.22 14.2644C114.973 13.2073 114.765 12.2727 114.595 11.4607C114.425 10.6487 114.249 9.77965 114.065 8.85366Z" fill="#C6E3E8"/>
</svg>
