<svg width="89" height="69" viewBox="0 0 89 69" fill="none" xmlns="http://www.w3.org/2000/svg">
<path d="M77.6689 27.9235V27.0578C77.4845 19.7292 74.4081 12.7711 69.1116 7.70261C63.815 2.63411 56.7283 -0.13315 49.3986 0.00492999C43.9398 -0.0396125 38.5845 1.49425 33.977 4.42193C29.3694 7.34962 25.7061 11.5464 23.4278 16.5072C17.013 17.2228 11.084 20.268 6.76561 25.0652C2.44718 29.8623 0.0397338 36.0777 0 42.5321C0.00709339 45.952 0.688173 49.337 2.0043 52.4936C3.32043 55.6501 5.24579 58.5163 7.67032 60.9283C10.0949 63.3402 12.971 65.2507 16.1343 66.5504C19.2977 67.8501 22.6861 68.5136 26.1061 68.5029H36.2509V63.0923H26.1061C20.8771 62.8093 15.9498 60.5546 12.3174 56.7827C8.68502 53.0107 6.61756 48.002 6.53178 42.7661C6.44601 37.5302 8.34829 32.4564 11.8552 28.5675C15.3621 24.6786 20.2129 22.2637 25.4297 21.8096H27.2423L27.8645 20.1052C29.5424 15.7474 32.5175 12.0096 36.388 9.39705C40.2585 6.78447 44.8377 5.42302 49.5068 5.49667C55.4018 5.35817 61.1126 7.5553 65.3945 11.6092C69.6765 15.6632 72.1826 21.2453 72.3666 27.139C72.4038 27.8599 72.4038 28.5823 72.3666 29.3032L72.1501 31.251L73.9086 32.0626C77.3096 33.5948 80.0791 36.2517 81.7511 39.5862C83.4231 42.9207 83.8956 46.7293 83.0891 50.3713C82.2826 54.0133 80.2463 57.2664 77.3228 59.5832C74.3993 61.9001 70.7671 63.1393 67.0371 63.0923H52.4827V68.5029H67.0371C71.8484 68.5374 76.534 66.9677 80.3535 64.0418C84.173 61.1159 86.9087 57.0006 88.1281 52.3463C89.3475 47.692 88.9812 42.764 87.0871 38.3411C85.193 33.9182 81.879 30.2526 77.6689 27.9235Z" fill="#0F4A7B"/>
</svg>
