<svg width="29" height="47" viewBox="0 0 29 47" fill="none" xmlns="http://www.w3.org/2000/svg">
<path d="M25.945 18.8649C26.4846 18.8735 27.0145 18.7205 27.4665 18.4255C27.9185 18.1306 28.2719 17.7072 28.4814 17.2098C28.6908 16.7123 28.7467 16.1637 28.6418 15.6342C28.5369 15.1048 28.2761 14.6189 27.8928 14.2389L14.3664 0.712402L0.839892 14.2389C0.396694 14.7564 0.165103 15.4221 0.191402 16.103C0.217701 16.7838 0.499952 17.4297 0.981749 17.9115C1.46355 18.3933 2.10941 18.6755 2.79026 18.7018C3.47112 18.7281 4.13683 18.4965 4.65435 18.0533L11.6611 11.1548V44.2947C11.6611 45.0121 11.9461 45.7002 12.4534 46.2076C12.9608 46.7149 13.6489 46.9999 14.3664 46.9999C15.0838 46.9999 15.7719 46.7149 16.2793 46.2076C16.7866 45.7002 17.0716 45.0121 17.0716 44.2947V11.1548L24.0242 18.1074C24.5392 18.6039 25.2298 18.8763 25.945 18.8649Z" fill="#0F4A7B"/>
</svg>
